<svg xmlns="http://www.w3.org/2000/svg" width="47.381" height="131.023" viewBox="0 0 47.381 131.023">
  <g id="bader" transform="translate(-71.757 -218.323)">
    <g id="Group_36" data-name="Group 36" transform="translate(71.757 218.323)">
      <path id="Path_148" data-name="Path 148" d="M91.527,218.584c3.662-.752,10.153.359,10.393.4a15.326,15.326,0,0,1,3.978,1.094c.743.334,1.533.57,2.234.971,1.225.7,2.428,1.444,3.581,2.255a18.162,18.162,0,0,1,4.257,4.472,17.052,17.052,0,0,1,1.427,2.564,24.939,24.939,0,0,1,1.2,3.074,8.862,8.862,0,0,1,.389,1.875c.106,1.119.122,2.255.122,3.383q.006,54.385,0,108.765a5.122,5.122,0,0,1-.021,1.111.851.851,0,0,1-.477.574c-.342.076-.807.161-.946-.376a2.519,2.519,0,0,1-.084-.638q-.006-44.021,0-88.038c0-7.754.017-15.508-.021-23.262a13.087,13.087,0,0,0-.87-4.392,16.671,16.671,0,0,0-2.509-4.62,19.583,19.583,0,0,0-4.878-4.426,22.816,22.816,0,0,0-4.814-2.251,14.234,14.234,0,0,0-2.623-.6,21.733,21.733,0,0,0-3.471-.367c-1.723-.059-3.446-.08-5.165-.013a25.084,25.084,0,0,0-4.253.443,30.748,30.748,0,0,0-4.426,1.356,20.243,20.243,0,0,0-2.585,1.411,17.4,17.4,0,0,0-6.326,6.5,24.4,24.4,0,0,0-1.411,3.265,13.583,13.583,0,0,0-.6,3.281c-.118,2.1-.122,4.211-.122,6.318q-.006,52.662,0,105.319c0,.857-.515,1.242-1.284.866a1.181,1.181,0,0,1-.427-.862c-.063-.705-.021-1.419-.021-2.129q0-53.5.013-106.991a14.423,14.423,0,0,1,.541-4.257c.249-.807.321-1.668.579-2.471a14.088,14.088,0,0,1,.908-2.091,16.22,16.22,0,0,1,2.648-3.915,29.039,29.039,0,0,1,2.686-2.614A27.276,27.276,0,0,1,82.5,221.3a16.2,16.2,0,0,1,2.6-1.132c1.039-.38,2.1-.7,3.167-1.018.346-.106.731-.1,1.085-.182.2-.055,1.14-.224,2.175-.389Z" transform="translate(-71.757 -218.323)" fill="#465d71"/>
      <path id="Path_149" data-name="Path 149" d="M121.2,244.659a11.437,11.437,0,0,0-.207-2.247,14.561,14.561,0,0,0-.693-2.276,11.136,11.136,0,0,0-.954-2.1c-.617-.976-1.339-1.884-2.044-2.8a12.276,12.276,0,0,0-3.328-2.792,14.432,14.432,0,0,0-4.827-2.107,21.678,21.678,0,0,0-3.024-.612c-1.964-.106-3.936-.021-5.9-.046a17.634,17.634,0,0,0-6.2,1.25,16.225,16.225,0,0,0-8.155,6.9,12.206,12.206,0,0,0-1.512,3.336,17.567,17.567,0,0,0-.5,4.456q.044,50.78.021,101.556c0,.824-.076,1.647-.072,2.471.008,1.761.063,3.522.068,5.283,0,.634.08.777.7.777h.811v-1.968a.493.493,0,0,0-.084-.021l.013-.253.072-.013v-1.981h-.034a1.187,1.187,0,0,1,.034-.321V348.77a.87.87,0,0,1-.038-.27c.017-2.095.038-4.185.038-6.28q.006-48.3,0-96.59a13.637,13.637,0,0,1,.7-4.726,19.891,19.891,0,0,1,1.482-2.893,12.338,12.338,0,0,1,3.4-3.619,16.3,16.3,0,0,1,5.913-2.715c2.352-.612,4.73-.389,7.1-.443A16.267,16.267,0,0,1,113.571,234a14.485,14.485,0,0,1,3.459,3.294,11.534,11.534,0,0,1,2.53,6.407c.127,2.441.106,4.895.11,7.34q.013,11.327,0,22.653v22.8h-.013q0,16.851,0,33.693,0,8.666.017,17.332V355.7h.684c.769,0,.853-.089.853-.874V299.594Q121.211,272.126,121.2,244.659Z" transform="translate(-78.72 -224.878)" fill="#465d71"/>
      <path id="Path_150" data-name="Path 150" d="M120.243,296.219q0,27.291,0,54.585a11.249,11.249,0,0,1-.1,1.246c-.055.5-.431.6-.836.583-.553-.025-.786-.266-.79-.752-.034-2.547-.093-5.093-.093-7.636q-.006-51.217-.013-102.43c0-1.17-.106-2.344-.22-3.514a4.866,4.866,0,0,0-.4-1.33,22.753,22.753,0,0,0-1.1-2.369,19.428,19.428,0,0,0-1.563-2.352,15.761,15.761,0,0,0-1.82-2,16.353,16.353,0,0,0-1.926-1.368c-.465-.312-.929-.633-1.419-.9a12.445,12.445,0,0,0-1.563-.718c-.984-.376-1.976-.722-2.973-1.068a3.545,3.545,0,0,0-.735-.148,40.172,40.172,0,0,0-6.943-.3c-1.639.076-3.269.237-4.9.405a5.837,5.837,0,0,0-1.326.4c-.883.317-1.782.6-2.631.992a16.568,16.568,0,0,0-2.635,1.474,18.67,18.67,0,0,0-2.77,2.352c-.735.781-1.208,1.8-1.9,2.623a20.9,20.9,0,0,0-1.474,2.846c-.135.22-.059.562-.144.828a15.807,15.807,0,0,0-.579,5q.019,52.053.008,104.1c0,1.385,0,2.77-.008,4.156,0,.334-.089.663-.08.992.013.49-.308.655-.684.693a.893.893,0,0,1-.954-.773c-.051-.532-.1-1.068-.1-1.6q-.006-54.207.021-108.41c0-1.335.4-2.665.49-4.008.076-1.068.726-1.913.938-2.918a2.855,2.855,0,0,1,.414-.845c.359-.562.781-1.085,1.106-1.668a11.824,11.824,0,0,1,2.466-2.944,24.114,24.114,0,0,1,2.542-1.981,17.08,17.08,0,0,1,2.357-1.377,26.72,26.72,0,0,1,2.766-1.068,15.894,15.894,0,0,1,1.871-.507,11.1,11.1,0,0,1,1.82-.287c2.048-.1,4.1-.207,6.153-.194a19.731,19.731,0,0,1,5.853.7c.929.291,1.82.718,2.754.992a15.223,15.223,0,0,1,3.374,1.774,13.343,13.343,0,0,1,1.816,1.389,11.229,11.229,0,0,1,1.453,1.415c.659.811,1.242,1.689,1.862,2.534.211.287.473.541.655.845a5.859,5.859,0,0,1,.5,1.1c.427,1.3.9,2.589,1.216,3.915a11.1,11.1,0,0,1,.232,2.6Q120.245,268.749,120.243,296.219Z" transform="translate(-75.117 -221.613)" fill="#f90"/>
      <path id="Path_151" data-name="Path 151" d="M123.739,262.183a8.731,8.731,0,0,0-2.331-2.711c-.405-.266-.824-.511-1.221-.79a.558.558,0,0,1-.076-.9c.405-.351.824-.688,1.233-1.035a6.613,6.613,0,0,0,2.34-4.32,12.552,12.552,0,0,0,.042-2.424,5.081,5.081,0,0,0-.469-2.293,10.75,10.75,0,0,0-1.575-2.428,21.374,21.374,0,0,0-2.036-1.71,3.1,3.1,0,0,0-.769-.46c-.794-.313-1.6-.608-2.411-.878a4.477,4.477,0,0,0-1.309-.291c-1.989-.034-3.983-.025-5.976-.017a14.541,14.541,0,0,0-5.676.71,11.825,11.825,0,0,0-3.472,2.331,9.024,9.024,0,0,0-1.74,2.872,1.8,1.8,0,0,0-.194.718c-.072,2.175-.144,4.35-.177,6.529-.021,1.212.021,2.428.051,3.645.013.705.228.984.8,1.005.992.034,1.989.051,2.982.046,1.753,0,3.505-.046,5.258-.046,1.77,0,3.543.072,5.313.042a18.6,18.6,0,0,1,4.219.194,9.205,9.205,0,0,1,2.1.629,6.532,6.532,0,0,1,2.982,2.863,6.128,6.128,0,0,1-.878,6.821,5.828,5.828,0,0,1-3.091,1.938,21.8,21.8,0,0,1-2.965.486c-2.107.076-4.215.013-6.322.034-1.415.013-1.423.021-1.423-1.373q.006-4.536.021-9.067c0-.494-.182-.836-.667-.925a7.043,7.043,0,0,0-1.2-.076c-2.04-.042-4.075-.084-6.115-.11a.928.928,0,0,0-1.039,1.026v5.925h-.025c0,.558,0,1.115,0,1.672,0,1.4-.013,2.8-.017,4.206,0,.7.367,1.174.916,1.178.6.008,1.2,0,1.8,0,2.192,0,4.379.017,6.571,0,2.716-.017,5.435.017,8.147-.122a9.1,9.1,0,0,0,3.645-.659,11.01,11.01,0,0,0,3.011-1.9,9.764,9.764,0,0,0,1.841-2.289,8.172,8.172,0,0,0,1.035-3.573A7.343,7.343,0,0,0,123.739,262.183Zm-4.612-6.829a8.369,8.369,0,0,1-2.758,1.609,9.117,9.117,0,0,1-3.4.389h-11.6c-.693,0-.794-.16-.726-.857.051-.574.013-1.153.013-1.732,0-1-.025-1.993.008-2.99a21.974,21.974,0,0,1,.232-3.3,4.024,4.024,0,0,1,.933-1.643,6.278,6.278,0,0,1,1.267-1.085c.367-.262.807-.418,1.182-.671a5.879,5.879,0,0,1,2.475-.583,6.339,6.339,0,0,1,1.043.08c2.31.008,4.624-.017,6.935.017a5.728,5.728,0,0,1,1.9.317,8.313,8.313,0,0,1,3.02,2.044,6.974,6.974,0,0,1,1.571,3.632,2.228,2.228,0,0,1-.089.786,6.556,6.556,0,0,1-.241,1.356c-.177.473-.557.866-.726,1.339A3.448,3.448,0,0,1,119.128,255.354Z" transform="translate(-86.865 -231.95)" fill="#f90"/>
      <path id="Path_152" data-name="Path 152" d="M123.925,362.241c.625.866.633.954-.389,1.368a28.024,28.024,0,0,1-3.56,1.254,22.072,22.072,0,0,1-5.824.57,20.276,20.276,0,0,1-6.157-1.022,19,19,0,0,1-5.4-2.872,18.307,18.307,0,0,1-4.447-4.646,15.529,15.529,0,0,1-2.259-5.541,16.846,16.846,0,0,1,.144-7.074,13.322,13.322,0,0,1,1.444-3.628,17.6,17.6,0,0,1,3.657-4.591,20.2,20.2,0,0,1,5.532-3.56,21.567,21.567,0,0,1,8.387-1.58,19.014,19.014,0,0,1,5.972.908,27.9,27.9,0,0,1,3.041,1.2.544.544,0,0,1,.169.853,7.885,7.885,0,0,0-.422.676c-.266.49-.562.566-1.068.329a17.068,17.068,0,0,0-4.992-1.5,20,20,0,0,0-6.043.051,17.412,17.412,0,0,0-4.3,1.233,15.581,15.581,0,0,0-5.52,3.978,18.334,18.334,0,0,0-2.428,3.319,12.484,12.484,0,0,0-1.427,5.87,15.3,15.3,0,0,0,.524,4.451,12.913,12.913,0,0,0,1.66,3.531,17.292,17.292,0,0,0,4.983,4.814,17.115,17.115,0,0,0,9.08,2.661,20.452,20.452,0,0,0,5.418-.562,20.239,20.239,0,0,0,2.8-.992c.777-.321.95-.3,1.373.414C123.887,362.187,123.908,362.216,123.925,362.241Z" transform="translate(-85.518 -283.357)" fill="#465d71"/>
      <path id="Path_153" data-name="Path 153" d="M124.381,427.324c-.017.025-.034.055-.051.084-.579,1.005-.883,1.1-1.909.65a17.68,17.68,0,0,0-7.5-1.516,20.2,20.2,0,0,0-4.519.705,16.593,16.593,0,0,0-8.843,5.9,9.231,9.231,0,0,0-1.909,3.784c-.148.819-.6,1.592-.659,2.407a31.749,31.749,0,0,0,0,4.3,7.639,7.639,0,0,0,.524,2.04,20.034,20.034,0,0,0,1.043,2.53,11.253,11.253,0,0,0,1.212,1.7c.346.443.743.845,1.111,1.267a14.771,14.771,0,0,0,2.787,2.361,15.913,15.913,0,0,0,4.253,2,28.485,28.485,0,0,0,3.062.621c.114.021.228.059.338.089a1.2,1.2,0,0,1,.718,1.934.587.587,0,0,1-.414.232,16.171,16.171,0,0,1-2.758-.165,23.235,23.235,0,0,1-3.463-1.06c-.726-.27-1.373-.764-2.091-1.073a12.229,12.229,0,0,1-3.125-2.183,15.907,15.907,0,0,1-1.892-1.841,27.552,27.552,0,0,1-2.285-3.172,13.232,13.232,0,0,1-1-2.5,12.676,12.676,0,0,1-.612-2.171c-.156-1.014-.177-2.048-.262-3.075a18.163,18.163,0,0,1,.709-4.422,15.028,15.028,0,0,1,2.6-5.114,16.4,16.4,0,0,1,3.961-3.767c.519-.334.992-.743,1.516-1.068a12.105,12.105,0,0,1,1.639-.857c.95-.414,1.926-.781,2.893-1.161a1,1,0,0,1,.245-.067c1.626-.258,3.243-.621,4.882-.739a18.689,18.689,0,0,1,3.408.3c.849.1,1.694.245,2.538.389a3.918,3.918,0,0,1,.718.224c.794.313,1.592.625,2.382.95a2.764,2.764,0,0,1,.528.283C124.875,426.623,124.871,426.631,124.381,427.324Z" transform="translate(-85.843 -337.112)" fill="#f90"/>
      <path id="Path_154" data-name="Path 154" d="M114.308,349.375q0,8.844.013,17.687c0,.452-.215.6-.587.406a15.755,15.755,0,0,1-4.81-3.624,14.545,14.545,0,0,1-2.327-3.624,12.411,12.411,0,0,1-.625-7.779,10.533,10.533,0,0,1,1.681-3.738,15.952,15.952,0,0,1,3.733-3.873c.7-.511,1.474-.916,2.217-1.364a2.072,2.072,0,0,1,.435-.1c.084.122.3.283.3.448C114.342,345.667,114.308,347.521,114.308,349.375Z" transform="translate(-91.324 -290.56)" fill="#465d71"/>
      <path id="Path_155" data-name="Path 155" d="M151.807,485.965c0,.625-.106.743-.735.743q-3.541.019-7.087.025c-.836,0-.95-.144-.946-.976.013-1.993,0-3.982,0-5.976h0c0-2.095.008-4.189,0-6.28,0-.524.291-.617.718-.612,2.209,0,4.422.017,6.635.009,1.542-.009,1.411-.1,1.406,1.415C151.795,478.2,151.8,482.079,151.807,485.965Z" transform="translate(-112.935 -365.38)" fill="#465d71"/>
      <path id="Path_156" data-name="Path 156" d="M133.8,304c-.013.646-.131.735-.794.735-.828,0-1.651.017-2.475,0-.693-.017-.845-.232-.819-.908s.008-1.381,0-2.069c0-.617.118-.743.735-.756.232,0,.469,0,.705,0h.659v0c.486,0,.976.013,1.465,0,.338-.013.5.122.507.465C133.8,302.316,133.817,303.156,133.8,304Z" transform="translate(-105.237 -266.082)" fill="#465d71"/>
      <path id="Path_157" data-name="Path 157" d="M133.788,291.38c0,.794,0,1.584-.008,2.373-.008.579-.131.688-.722.7-.422.008-.845,0-1.263,0v0c-.507,0-1.014.017-1.516-.008-.422-.017-.6-.224-.574-.693.042-.705-.008-1.415-.025-2.12s.169-.9.878-.912c.84-.009,1.685-.013,2.525-.017C133.611,290.7,133.784,290.86,133.788,291.38Z" transform="translate(-105.217 -260.133)" fill="#465d71"/>
      <path id="Path_158" data-name="Path 158" d="M144.53,294.457c-.5.021-1.009,0-1.516,0v.013c-.49,0-.98-.008-1.47,0a.512.512,0,0,1-.6-.574c0-.878-.008-1.753.008-2.627,0-.4.262-.562.642-.536a3.466,3.466,0,0,1,2.7,1.465,6.529,6.529,0,0,1,.739,1.525C145.219,294.212,145.046,294.432,144.53,294.457Z" transform="translate(-111.723 -260.153)" fill="#465d71"/>
      <path id="Path_159" data-name="Path 159" d="M145.093,301.682a3.729,3.729,0,0,1-1.516,2.3,3.09,3.09,0,0,1-2.09.71c-.308-.025-.5-.152-.5-.452-.013-.942-.025-1.884.017-2.825.008-.144.287-.372.46-.389a14.9,14.9,0,0,1,1.567-.021v0c.507,0,1.014-.013,1.52,0S145.2,301.179,145.093,301.682Z" transform="translate(-111.74 -266.081)" fill="#465d71"/>
      <path id="Path_160" data-name="Path 160" d="M111.42,268.869c-.49,0-.976.008-1.465,0s-.714-.224-.705-.705c.013-.7.059-1.4.093-2.1a.915.915,0,0,0,0-.152c-.072-.777.034-.891.845-.891.874,0,1.753,0,2.627,0,.583,0,.667.106.684.663.021.684.08,1.368.093,2.053a1.509,1.509,0,0,1-.139.769.837.837,0,0,1-.57.346A12.949,12.949,0,0,1,111.42,268.869Z" transform="translate(-93.416 -245.296)" fill="#465d71"/>
      <path id="Path_161" data-name="Path 161" d="M122.635,265.027c.439,0,.878,0,1.318,0,.735-.008.8.169.828.794a2.721,2.721,0,0,1-1.085,2.53,3.4,3.4,0,0,1-1.259.511,5.273,5.273,0,0,1-1.212.017c-.49-.013-.709-.22-.718-.7q-.019-1.216,0-2.433c.008-.591.152-.714.756-.718C121.723,265.023,122.179,265.027,122.635,265.027Z" transform="translate(-99.913 -245.302)" fill="#465d71"/>
      <path id="Path_162" data-name="Path 162" d="M122.592,258.55c-.473,0-.946-.008-1.419,0s-.671-.2-.663-.663c.013-.781,0-1.558,0-2.34,0-.68.177-.845.862-.853a3.4,3.4,0,0,1,2.682.87,2.1,2.1,0,0,1,.718,1.681,1.641,1.641,0,0,0,.051.494.6.6,0,0,1-.608.8C123.673,258.563,123.132,258.55,122.592,258.55Z" transform="translate(-99.92 -239.336)" fill="#465d71"/>
      <path id="Path_163" data-name="Path 163" d="M112.317,254.674c.908-.059,1.216.072,1.161,1.254a10.869,10.869,0,0,0,.093,1.7.718.718,0,0,1-.76.9h-2.593c-.815,0-1.149-.346-.984-1.145a2.936,2.936,0,0,1,3.083-2.711Z" transform="translate(-93.383 -239.316)" fill="#465d71"/>
    </g>
    <rect id="Rectangle_168" data-name="Rectangle 168" width="34.318" height="1.626" transform="translate(78.393 342.793)" fill="#465d71"/>
    <path id="Path_253" data-name="Path 253" d="M0,0H34.318V1.626H0Z" transform="translate(78.393 345.158)" fill="#f90"/>
    <rect id="Rectangle_170" data-name="Rectangle 170" width="34.318" height="1.626" transform="translate(78.393 347.523)" fill="#465d71"/>
  </g>
</svg>
