<svg xmlns="http://www.w3.org/2000/svg" width="70.121" height="75" viewBox="0 0 70.121 75">
  <g id="Untitled-1-01" transform="translate(-36.023 -36.51)">
    <path id="Path_19" data-name="Path 19" d="M303.814,61.9C300.521,65.293,300.3,65.293,300.3,63s-.439-2.4-9.877-2.4H280.55V73.72h3.841c3.621,0,3.841-.223,3.841-3.827,0-3.389-.33-3.827-2.744-3.827-1.755,0-2.742-.657-2.742-1.639,0-1.312,1.535-1.641,7.132-1.641h7.134V74.815c0,11.81.548,13.669,3.291,10.389a4.515,4.515,0,0,1,2.306-1.641c.438,0-1.2,1.969-3.731,4.264-4.063,3.827-4.39,4.484-2.963,6.125.879,1.093,1.646,4.154,1.646,6.888,0,2.953.548,5.14,1.427,5.359.877.328,1.315-.766,1.315-3.5,0-3.5.224-3.937,1.646-2.734,1.2.984,1.645,3.827,1.645,11.594,0,8.42-.328,10.278-1.645,10.278q-1.646,0-1.646-3.28c0-4.156-1.975-4.375-2.408-.223-.334,2.515-.879,2.953-4.39,3.287l-4.17.327v-6.576c0-5.249-.328-6.671-1.645-6.671s-1.654,1.53-1.654,7.659v7.649h3.4c2.962,0,3.293.223,2.086,1.639-1.1,1.312-1.1,1.969,0,3.391,1.317,1.422,1.645,1.422,3.072,0,1.427-1.312,1.427-1.969.224-3.281-1.2-1.53-.659-1.749,4.828-1.749h6.145V112.644c0-6.449.438-11.81,1.1-12.139.659-.436,1.1,3.827,1.1,12.029,0,9.732.328,12.685,1.425,12.356.879-.327,1.427-4.592,1.646-14.762.223-11.149.659-14.654,1.976-15.638,1.425-1.2,1.425-1.641,0-3.172-1.756-1.969-2.859-23.729-1.317-26.245.658-.985,0-2.3-1.646-4.049L307.438,58.4Zm4.72,1.963c.328.546-.113,1.093-1.1,1.093s-1.425-.546-1.1-1.093c.33-.657.879-1.093,1.1-1.093S308.2,63.216,308.534,63.867Zm-3.293,3.286a2.393,2.393,0,0,1-.33,2.515c-.659.765-1.317,3.28-1.535,5.573-.549,6.89-3.073,6.342-3.073-.655C300.3,67.808,303.042,63.652,305.241,67.153Zm-19.205,2.736a1.643,1.643,0,1,1-1.642-1.639A1.686,1.686,0,0,1,286.036,69.888Zm23.046,7.764c0,6.123-.33,8.2-1.317,7.872-.879-.327-1.537-2.951-1.756-6.89-.328-6.779.113-9.3,1.976-9.3.658,0,1.094,3.283,1.094,8.315Zm-3.293,11.371a1.1,1.1,0,0,1-1.1,1.093,1.178,1.178,0,0,1-1.1-1.093,1.1,1.1,0,0,1,1.1-1.093,1.036,1.036,0,0,1,1.1.966.928.928,0,0,1,0,.129ZM301.4,92.965c0,.876-.438,1.312-1.1.985a2.343,2.343,0,0,1-1.1-1.75,1.084,1.084,0,0,1,1.1-.984c.655-.007,1.094.759,1.094,1.747Zm8.127.547a1.12,1.12,0,0,1-1.529.4,1.222,1.222,0,0,1-.117-.078,1.112,1.112,0,0,1-.406-1.524,1.033,1.033,0,0,1,.078-.115,1.123,1.123,0,0,1,1.529-.406,1.043,1.043,0,0,1,.116.078,1.12,1.12,0,0,1,.334,1.636ZM305.8,96.679a1.1,1.1,0,0,1-1.1,1.093,1.178,1.178,0,0,1-1.1-1.093,1.1,1.1,0,0,1,1.1-1.095,1.036,1.036,0,0,1,1.1.97.859.859,0,0,1-.009.123Z" transform="translate(-207.961 -18.596)"/>
    <path id="Path_20" data-name="Path 20" d="M348.622,96.283a2.709,2.709,0,0,0,.879,2.744c1.427,1.427,1.755,1.427,2.962,0a2.709,2.709,0,0,0,.659-2.859,2.835,2.835,0,0,0-4.5.11Z" transform="translate(-265.65 -49.781)"/>
    <path id="Path_21" data-name="Path 21" d="M164.813,403.329c-.987,2.524,1.427,4.39,3.513,2.634,1.317-1.1,1.427-1.756.438-2.859C167.114,401.133,165.688,401.133,164.813,403.329Z" transform="translate(-109.284 -310.385)"/>
    <path id="Path_22" data-name="Path 22" d="M280.55,417.189c0,5.158.438,8.779,1.1,8.779s1.1-3.621,1.1-8.779-.441-8.779-1.1-8.779S280.55,412.031,280.55,417.189Z" transform="translate(-207.853 -316.18)"/>
    <path id="Path_4" data-name="Path 4" d="M200.34,213.294c0,1.866,2.408,1.537,3.073-.438.223-.769-.33-1.317-1.317-1.317a1.735,1.735,0,0,0-1.756,1.71Z" transform="translate(-139.674 -148.779)" fill="#6f011c"/>
    <path id="Path_5" data-name="Path 5" d="M232.539,212.528c-.659.987,1.755,4.389,3.072,4.389.33,0,.439-1.2.33-2.744C235.824,211.431,233.853,210.445,232.539,212.528Z" transform="translate(-166.949 -148.672)" fill="#6f011c"/>
    <path id="Path_6" data-name="Path 6" d="M260.9,213.539c-1.866,1.425-1.866,1.535-.111,1.645.987,0,1.866-.548,1.866-1.1,0-.659.877-.548,2.194.223,2.3,1.427,3.951.659,2.744-1.2C266.606,211.455,263.423,211.565,260.9,213.539Z" transform="translate(-189.96 -149.133)" fill="#6f011c"/>
    <path id="Path_7" data-name="Path 7" d="M320.688,213.186c.438.877,1.1,1.645,1.645,1.645s.989-.769.989-1.645a1.689,1.689,0,0,0-1.64-1.646C320.688,211.54,320.353,212.2,320.688,213.186Z" transform="translate(-241.866 -148.78)" fill="#6f011c"/>
    <path id="Path_8" data-name="Path 8" d="M283.342,234.517c-.33.548-.113,1.1.438,1.1a1.2,1.2,0,0,0,1.2-1.1c0-.659-.224-1.1-.438-1.1C284.212,233.42,283.669,233.858,283.342,234.517Z" transform="translate(-210.093 -167.377)" fill="#6f011c"/>
    <path id="Path_9" data-name="Path 9" d="M201.181,243.767c-1.2,1.2-.879,3.951.33,3.183a2.683,2.683,0,0,1,2.742.548c1.317,1.1,1.646.989,1.646-.438a1.628,1.628,0,0,0-1.491-1.753h-.045a2.136,2.136,0,0,1-1.976-1.2C202.167,243.543,201.619,243.32,201.181,243.767Z" transform="translate(-139.749 -175.974)" fill="#6f011c"/>
    <path id="Path_10" data-name="Path 10" d="M305.713,241.782c0,.548-.769,1.1-1.646,1.1s-1.646.549-1.646,1.2.987.877,2.408.328c2.2-.659,2.3-.548.989,1.1-1.537,1.866-1.1,3.623.658,2.524,1.317-.877,1.645-7.352.33-7.352A1.1,1.1,0,0,0,305.713,241.782Z" transform="translate(-226.449 -173.557)" fill="#6f011c"/>
    <path id="Path_11" data-name="Path 11" d="M242.573,252.846c-1.976.33-3.4,3.951-2.408,6.365,1.2,3.072,7.244,3.072,8.451-.111C250.028,255.147,246.954,251.856,242.573,252.846Z" transform="translate(-173.261 -183.75)" fill="#6f011c"/>
    <path id="Path_12" data-name="Path 12" d="M201.744,279c-1.2,4.5-.659,10.2.879,10.2,1.975,0,2.084-1.317.438-2.962-.879-.879-.548-1.865,1.1-3.511,2.963-2.963,2.859-3.293-.111-2.744-1.427.224-1.866.224-1.1-.224,1.535-.768,1.755-2.634.328-2.634C202.73,277.135,201.964,278.013,201.744,279Z" transform="translate(-140.312 -204.551)" fill="#6f011c"/>
    <path id="Path_13" data-name="Path 13" d="M302.42,292.986c0,.549.769,1.1,1.645,1.1a1.711,1.711,0,0,1,1.646,1.761c0,.877.548,1.317,1.1.987a2.757,2.757,0,0,0,1.1-2.3c0-.879-.438-1.427-.987-.987a1.335,1.335,0,0,1-1.755-.555C304.286,291.565,302.42,291.565,302.42,292.986Z" transform="translate(-226.45 -217.108)" fill="#6f011c"/>
    <path id="Path_14" data-name="Path 14" d="M233.3,323.635c-1.645,1.756-.877,3.731,1.427,3.731.769,0,1.317-1.1,1.2-2.742C235.814,321.442,235.27,321.333,233.3,323.635Z" transform="translate(-166.94 -242.723)" fill="#6f011c"/>
    <path id="Path_15" data-name="Path 15" d="M283.33,321.988c.328.548.877,1.1,1.2,1.1.223,0,.438-.548.438-1.1a1.127,1.127,0,0,0-1.154-1.1h-.056C283.217,320.891,283,321.329,283.33,321.988Z" transform="translate(-210.081 -241.726)" fill="#6f011c"/>
    <path id="Path_16" data-name="Path 16" d="M261.791,331.62a1.118,1.118,0,0,0,.212,1.567,1.218,1.218,0,0,0,.117.078,1.118,1.118,0,0,0,1.568-.212c.027-.038.054-.077.077-.116a1.118,1.118,0,0,0-.212-1.568,1.206,1.206,0,0,0-.116-.078,1.118,1.118,0,0,0-1.568.214A1.231,1.231,0,0,0,261.791,331.62Z" transform="translate(-191.713 -250.375)" fill="#6f011c"/>
    <path id="Path_17" data-name="Path 17" d="M283.4,337.136c-1.1,1.317-1.1,1.645.328,1.645a4.8,4.8,0,0,0,2.963-1.645c1.1-1.317,1.1-1.646-.328-1.646A4.8,4.8,0,0,0,283.4,337.136Z" transform="translate(-209.61 -254.141)" fill="#6f011c"/>
    <path id="Path_18" data-name="Path 18" d="M320.7,337.136c-.33.987,0,1.645.987,1.645a1.687,1.687,0,0,0,1.646-1.645c0-.879-.439-1.646-.989-1.646S321.139,336.259,320.7,337.136Z" transform="translate(-241.879 -254.141)" fill="#6f011c"/>
    <path id="Path_446" data-name="Path 446" d="M169.72,205.315l.33,7.79h29.512V182.38H169.94v7.242m2.194,20.191V197.961c0-6.583.328-12.29.769-12.729.438-.328,5.928-.548,12.29-.438l11.635.33.325,12.29.328,12.4Z" transform="translate(-113.693 -124.041)" fill="#6f011c"/>
    <path id="Path_1" data-name="Path 1" d="M165.326,37.723c-1.1,1.865,1.427,3.951,2.962,2.408a2.107,2.107,0,0,0-1.212-3.621A2.6,2.6,0,0,0,165.326,37.723Z" transform="translate(-109.684)"/>
    <path id="Path_2" data-name="Path 2" d="M244.09,52.619c0,5.158.438,8.779,1.1,8.779s1.1-3.621,1.1-8.779-.439-8.779-1.1-8.779S244.09,47.461,244.09,52.619Z" transform="translate(-176.861 -6.227)"/>
    <path id="Path_447" data-name="Path 447" d="M61.851,120.2c0,3.388.328,3.826,2.742,3.826,1.756,0,2.744.655,2.744,1.639,0,1.2-1.2,1.639-4.5,1.639-3.731,0-4.279-.222-3.291-1.529.987-1.093.877-1.748-.33-2.849-1.645-1.312-3.951-.655-3.951,1.094,0,.546.879.655,1.976.327,1.755-.657,1.755-.657,0,1.093-3.614,3.615-4.173,2.19-4.173-10.27V103.032l-2.959,1.859c-2.408,1.531-2.194.985,1.317-2.624l4.214-4.4a13.511,13.511,0,0,0,0-1.807c-.033-.1-.471-.15-.807-.45-.879-.657-1.756-3.5-1.976-6.341-.33-5.684-3.072-7.87-3.072-2.4,0,1.969-.439,3.171-1.1,2.733-1.425-.876-1.425-21.317-.111-21.317.548,0,1.2,1.2,1.427,2.732.438,3.609,2.408,3.609,2.86,0,.33-2.3.879-2.732,4.17-2.732h3.731V74.3c0,4.592.328,6.012,1.645,6.012s1.646-1.529,1.646-7.105V66.081H44.3V77.449c0,16.4-2.084,15.962-2.408-.436C41.657,66.411,41.33,64,40.233,65.1c-.989.984-1.427,5.684-1.427,15.3,0,11.042-.33,14.1-1.645,15.2-1.537,1.312-1.537,1.64.111,3.39,1.427,1.639,1.865,3.934,1.645,10.931-.223,5.573.224,9.4,1.1,10.386.987,1.2.877,1.967-.549,3.5-1.645,1.859-1.535,2.187.989,4.592l2.739,2.619,3.072-2.952c3.732-3.5,4.61-3.717,4.61-.766,0,2.078.769,2.187,9.876,2.187h9.882V116.371H66.24C61.961,116.371,61.851,116.482,61.851,120.2ZM49.263,96.7a1.037,1.037,0,0,1,.078-.115,1.121,1.121,0,0,1,1.529-.406,1.042,1.042,0,0,1,.116.078,1.112,1.112,0,0,1,.406,1.523,1.039,1.039,0,0,1-.078.115h0a1.121,1.121,0,0,1-1.529.406,1.223,1.223,0,0,1-.117-.078A1.112,1.112,0,0,1,49.263,96.7Zm-4.42-3.286A2.088,2.088,0,0,1,46.6,92.318a1.014,1.014,0,0,1,.992,1.033v.061c0,.546-.769,1.093-1.755,1.093C44.953,94.505,44.515,93.959,44.843,93.412ZM41,97.783a1.1,1.1,0,0,1,1.1-1.093,1.034,1.034,0,0,1,1.1.97.878.878,0,0,1,0,.126h0a1.1,1.1,0,0,1-1.1,1.093A1.179,1.179,0,0,1,41,97.783Zm3.3,27.983c0,.876-.548,1.312-1.1.985A1.329,1.329,0,0,1,42.641,125c.99-1.525,1.655-1.2,1.655.771Zm.88-12.894c-.224,3.607-.879,6.231-1.646,6.558-1.1.328-1.425-1.639-1.425-7.434,0-7,.223-7.762,1.645-6.559,1.311,1.094,1.64,3.062,1.421,7.435Zm.111-10.279a1.112,1.112,0,0,1-.408-1.523c.024-.039.05-.078.078-.115a1.121,1.121,0,0,1,1.529-.4,1.031,1.031,0,0,1,.116.076,1.112,1.112,0,0,1,.4,1.523.907.907,0,0,1-.08.118h0a1.121,1.121,0,0,1-1.528.4.87.87,0,0,1-.116-.072Zm3.729,19.573c-2.3,2.514-4.279.766-2.634-2.3a13.818,13.818,0,0,0,1.2-5.462c0-5.355,1.646-5.029,2.408.438.552,4.147.333,5.678-.984,7.32Zm18.325-1.906v.045c0,1.859-2.408,1.529-3.072-.438-.224-.765.328-1.312,1.317-1.312a1.731,1.731,0,0,1,1.749,1.7Z" transform="translate(0 -24.084)"/>
  </g>
</svg>
